<svg width="514" height="533" viewBox="0 0 514 533" fill="none" xmlns="http://www.w3.org/2000/svg">
<path d="M207.646 19.0463C235.968 -5.01524 277.552 -5.01524 305.873 19.0463C321.502 32.3242 341.739 38.8998 362.188 37.3441C399.243 34.5251 432.884 58.9666 441.653 95.0795C446.493 115.008 459 132.223 476.458 142.984C508.093 162.484 520.943 202.031 506.812 236.402C499.013 255.369 499.013 276.648 506.812 295.615C520.943 329.985 508.093 369.533 476.458 389.033C459 399.793 446.493 417.008 441.653 436.937C432.884 473.05 399.243 497.491 362.188 494.672C341.739 493.117 321.502 499.692 305.873 512.97C277.552 537.032 235.968 537.032 207.646 512.97C192.018 499.692 171.781 493.117 151.332 494.672C114.277 497.491 80.6348 473.05 71.8652 436.937C67.0258 417.008 54.5193 399.793 37.0615 389.033C5.42614 369.533 -7.42378 329.985 6.70801 295.615C14.5066 276.648 14.5066 255.369 6.70801 236.402C-7.42377 202.031 5.42613 162.484 37.0615 142.984C54.5193 132.223 67.0258 115.008 71.8652 95.0795C80.6348 58.9665 114.277 34.5251 151.332 37.3441C171.781 38.8998 192.018 32.3242 207.646 19.0463Z" fill="#FBEFE7" stroke="url(#paint0_linear_876_4417)" stroke-width="2"/>
<defs>
<linearGradient id="paint0_linear_876_4417" x1="256.76" y1="-23.9918" x2="256.76" y2="556.008" gradientUnits="userSpaceOnUse">
<stop stop-color="#F0C4A8"/>
<stop offset="1" stop-color="#FBEFE7"/>
</linearGradient>
</defs>
</svg>
