<svg width="47" height="47" viewBox="0 0 47 47" fill="none" xmlns="http://www.w3.org/2000/svg">
<path d="M24.9994 13.9037C26.4735 14.2987 27.9886 13.4239 28.3836 11.9498C28.7786 10.4758 27.9038 8.96059 26.4297 8.56562C24.9557 8.17064 23.4405 9.04542 23.0455 10.5195C22.6506 11.9936 23.5253 13.5087 24.9994 13.9037Z" fill="#4F78FF"/>
<path d="M24.6418 15.2382C25.8702 15.5674 26.5992 16.83 26.27 18.0584L22.2303 33.1347L23.9568 32.5913C25.1698 32.2095 26.4627 32.8834 26.8445 34.0964C27.2263 35.3095 26.5525 36.6024 25.3394 36.9842L22.8126 37.7795C19.6927 38.7615 16.7184 35.912 17.5648 32.7531L21.8216 16.8664C22.1508 15.638 23.4134 14.9091 24.6418 15.2382Z" fill="#4F78FF"/>
<path fill-rule="evenodd" clip-rule="evenodd" d="M45.4651 29.1614C42.1737 41.4453 29.5474 48.7351 17.2635 45.4437C4.97955 42.1522 -2.31026 29.5259 0.9812 17.242C4.27266 4.95807 16.899 -2.33174 29.1829 0.959718C41.4668 4.25118 48.7566 16.8775 45.4651 29.1614ZM42.7961 28.4462C39.8996 39.2561 28.7885 45.6711 17.9786 42.7746C7.16879 39.8781 0.75375 28.767 3.65024 17.9571C6.54672 7.1473 17.6579 0.732268 28.4677 3.62875C39.2776 6.52524 45.6926 17.6364 42.7961 28.4462Z" fill="#4F78FF"/>
</svg>
