<svg width="29" height="40" viewBox="0 0 29 40" fill="none" xmlns="http://www.w3.org/2000/svg">
<path fill-rule="evenodd" clip-rule="evenodd" d="M26.5833 4.19315C26.5833 2.85418 25.1561 1.98672 23.9503 2.59286L13.2424 7.97583C8.11929 10.5513 4.45831 15.1565 3.05213 20.5128C3.67998 20.0425 4.38152 19.6597 5.13997 19.3833L7.43683 18.5463L7.45109 18.5412L20.7356 13.8867L23.9542 12.7138C25.1895 12.2637 26.1526 11.2896 26.5833 10.0642V4.19315ZM26.5833 13.9802V17.2501C26.5833 17.7287 26.5116 18.2047 26.3704 18.6624C26.1507 19.375 25.579 19.9272 24.8543 20.1271L8.82777 24.5479C7.12823 25.0167 5.9525 26.5496 5.9525 28.2965C5.9525 31.0526 8.35446 33.2069 11.1243 32.935L22.9573 31.7737C24.8993 31.5831 26.5833 33.0935 26.5833 35.0258C26.5833 36.4514 25.4162 37.6071 23.9765 37.6071H7.16084C6.49349 37.6071 5.9525 38.1427 5.9525 38.8035C5.9525 39.4643 6.49349 40 7.16084 40H23.9765C26.7509 40 29 37.773 29 35.0258C29 31.6786 26.0829 29.0623 22.719 29.3924L10.8859 30.5538C9.53804 30.686 8.36917 29.6377 8.36917 28.2965C8.36917 27.6238 8.82189 27.0336 9.4763 26.8531L25.5028 22.4323C27.0224 22.0131 28.2211 20.8552 28.6817 19.3613C28.8927 18.677 29 17.9655 29 17.2501V4.19315C29 1.06889 25.6697 -0.955176 22.8563 0.459155L12.1484 5.84212C4.69546 9.58878 0 17.1635 0 25.4399V31.3118C0 31.9726 0.540989 32.5082 1.20833 32.5082C1.87568 32.5082 2.41667 31.9726 2.41667 31.3118V25.5766C2.86405 23.7589 4.19636 22.2771 5.97463 21.629L8.26439 20.7946L21.5489 16.1401L21.5632 16.135L24.7888 14.9595C25.4413 14.7217 26.0448 14.3897 26.5833 13.9802Z" fill="url(#paint0_linear_160_2083)"/>
<defs>
<linearGradient id="paint0_linear_160_2083" x1="12.4542" y1="-0.680044" x2="16.4172" y2="38.8164" gradientUnits="userSpaceOnUse">
<stop offset="0.095" stop-color="white"/>
<stop offset="1" stop-color="#3766FF"/>
</linearGradient>
</defs>
</svg>
