<svg width="42" height="28" viewBox="0 0 42 28" fill="none" xmlns="http://www.w3.org/2000/svg">
<path d="M0 26.432V0H11.2128C14.0288 0 16.2048 0.610909 17.7408 1.83273C19.2768 3.05455 20.0448 4.80582 20.0448 7.08655C20.0448 8.49842 19.7504 9.63879 19.1616 10.5076C18.5984 11.3765 17.792 12.0281 16.7424 12.4625C15.6928 12.8698 14.464 13.1413 13.056 13.2771L13.1328 12.992C14.1824 13.0464 15.168 13.1685 16.0896 13.3586C17.0368 13.5486 17.856 13.8609 18.5472 14.2953C19.264 14.7297 19.8272 15.3271 20.2368 16.0873C20.672 16.8475 20.8896 17.8386 20.8896 19.0604C20.8896 20.6624 20.5312 22.0064 19.8144 23.0924C19.0976 24.1513 18.0992 24.9522 16.8192 25.4953C15.5648 26.0384 14.1056 26.3506 12.4416 26.432H0ZM3.6864 22.9295H11.7504C13.44 22.9295 14.7584 22.6036 15.7056 21.952C16.6528 21.3004 17.1264 20.2686 17.1264 18.8567C17.1264 17.7707 16.832 16.9562 16.2432 16.4131C15.6544 15.87 14.8864 15.5171 13.9392 15.3542C13.0176 15.1913 12.0576 15.1098 11.0592 15.1098H3.6864V22.9295ZM3.6864 11.648H10.9056C12.5952 11.648 13.9136 11.295 14.8608 10.5891C15.808 9.856 16.2816 8.79709 16.2816 7.41237C16.2816 6.00049 15.808 4.99588 14.8608 4.39855C13.9136 3.80122 12.7104 3.50255 11.2512 3.50255H3.6864V11.648Z" fill="white"/>
<path d="M37.8244 19.8343H41.3188C41.114 21.1647 40.6276 22.3594 39.8596 23.4183C39.0916 24.4772 38.0804 25.3188 36.826 25.9434C35.5716 26.5679 34.0996 26.8801 32.41 26.8801C30.4132 26.8801 28.634 26.4321 27.0724 25.5361C25.5108 24.6401 24.282 23.4047 23.386 21.8299C22.49 20.2552 22.042 18.4224 22.042 16.3317C22.042 14.2139 22.4772 12.3676 23.3476 10.7928C24.218 9.19087 25.4212 7.9419 26.9572 7.0459C28.4932 6.1499 30.2468 5.7019 32.218 5.7019C34.2916 5.7019 36.0324 6.13632 37.4404 7.00518C38.8484 7.87403 39.8852 9.16372 40.5508 10.8743C41.242 12.5577 41.5236 14.6619 41.3956 17.187H25.69C25.818 18.4088 26.1636 19.4948 26.7268 20.4452C27.3156 21.3955 28.0836 22.1421 29.0308 22.6852C30.0036 23.2283 31.1172 23.4997 32.3716 23.4997C33.7796 23.4997 34.9572 23.1603 35.9044 22.4815C36.8516 21.8028 37.4916 20.9203 37.8244 19.8343ZM32.2564 9.04154C30.5924 9.04154 29.21 9.51669 28.1092 10.467C27.0084 11.3901 26.2788 12.6255 25.9204 14.1732H37.7092C37.6068 12.5169 37.0436 11.2544 36.0196 10.3855C34.9956 9.48954 33.7412 9.04154 32.2564 9.04154Z" fill="white"/>
<path d="M25.7671 2.24976H37.7671" stroke="white" stroke-width="2"/>
</svg>
