<svg width="107" height="25" viewBox="0 0 107 25" fill="none" xmlns="http://www.w3.org/2000/svg">
<ellipse cx="12" cy="12.5" rx="8" ry="7.5" fill="#4F78FF"/>
<path d="M50.6243 5.06901C51.2686 3.32777 53.7314 3.32777 54.3757 5.06901L55.557 8.26138C55.7596 8.80882 56.1912 9.24044 56.7386 9.44301L59.931 10.6243C61.6722 11.2686 61.6722 13.7314 59.931 14.3757L56.7386 15.557C56.1912 15.7596 55.7596 16.1912 55.557 16.7386L54.3757 19.931C53.7314 21.6722 51.2686 21.6722 50.6243 19.931L49.443 16.7386C49.2404 16.1912 48.8088 15.7596 48.2614 15.557L45.069 14.3757C43.3278 13.7314 43.3278 11.2686 45.069 10.6243L48.2614 9.44301C48.8088 9.24044 49.2404 8.80882 49.443 8.26138L50.6243 5.06901Z" fill="#E4AD54"/>
<path d="M88.2777 21.2488C86.7809 21.2488 85.8146 19.665 86.4991 18.334L92.2215 7.20805C92.9657 5.76104 95.0343 5.76104 95.7785 7.20805L101.501 18.334C102.185 19.665 101.219 21.2488 99.7223 21.2488H94H88.2777Z" fill="#FF5858"/>
</svg>
