<svg width="54" height="52" viewBox="0 0 54 52" fill="none" xmlns="http://www.w3.org/2000/svg">
<path d="M4 22.5C2.067 22.5 0.5 24.067 0.5 26C0.5 27.933 2.067 29.5 4 29.5L4 22.5ZM52.4749 28.4749C53.8417 27.108 53.8417 24.892 52.4749 23.5251L30.201 1.25126C28.8342 -0.11557 26.6181 -0.11557 25.2513 1.25126C23.8844 2.6181 23.8844 4.83418 25.2513 6.20101L45.0503 26L25.2513 45.799C23.8844 47.1658 23.8844 49.3819 25.2513 50.7487C26.6181 52.1156 28.8342 52.1156 30.201 50.7487L52.4749 28.4749ZM4 29.5L50 29.5L50 22.5L4 22.5L4 29.5Z" fill="white" fill-opacity="0.3"/>
</svg>
