<svg width="172" height="92" viewBox="0 0 172 92" fill="none" xmlns="http://www.w3.org/2000/svg">
<path opacity="0.7" d="M22.0231 90.5164C21.1066 91.5491 19.5265 91.6432 18.4939 90.7268L1.66556 75.7916C0.632889 74.8751 0.538696 73.295 1.4552 72.2624C2.37169 71.2297 3.9518 71.1355 4.98447 72.052L19.943 85.3277L33.2186 70.3692C34.1351 69.3365 35.7152 69.2423 36.7479 70.1588C37.7806 71.0753 37.8748 72.6554 36.9583 73.6881L22.0231 90.5164ZM171.944 21.3026C129.026 21.3026 105.841 27.3302 94.7448 34.7406C89.273 38.3948 86.9467 42.2402 86.3709 45.7054C85.7901 49.2002 86.9078 52.7992 89.3007 56.0951C91.697 59.3955 95.2731 62.2362 99.2263 64.0727C103.192 65.9151 107.334 66.6555 110.855 66.0353C114.273 65.4332 117.216 63.5441 119.083 59.7953C121.006 55.934 121.893 49.8717 120.498 40.8316L125.439 40.0688C126.919 49.6537 126.118 56.8836 123.559 62.024C120.943 67.2769 116.608 70.0989 111.722 70.9595C106.938 71.8021 101.747 70.7569 97.1197 68.6073C92.4803 66.452 88.2037 63.0945 85.2547 59.0327C82.3024 54.9664 80.5822 50.0391 81.4385 44.8858C82.2998 39.7028 85.6854 34.7782 91.968 30.5826C104.38 22.2935 128.874 16.3026 171.944 16.3026V21.3026ZM120.498 40.8316C117.709 22.7662 109.923 12.6384 100.373 8.23734C90.7313 3.79412 78.6295 4.87521 66.647 10.6553C42.6595 22.2262 20.4638 52.0473 22.6489 88.7082L17.6577 89.0057C15.3428 50.1666 38.8046 18.5344 64.4746 6.15184C77.3208 -0.0447991 91.0478 -1.56542 102.465 3.69634C113.974 9.00023 122.478 20.8841 125.439 40.0688L120.498 40.8316Z" fill="#FF5858"/>
</svg>
